<svg width="25" height="24" viewBox="0 0 25 24" fill="none" xmlns="http://www.w3.org/2000/svg">
<path d="M15.2627 6.39802L12.0672 9.59369C11.002 8.52893 9.93659 7.46313 8.87131 6.39802C7.63897 5.16568 5.72875 7.07658 6.96006 8.30927C8.02551 9.37369 9.09131 10.4397 10.1556 11.5048C9.09082 12.5704 8.02566 13.6355 6.96006 14.7003C5.72875 15.9323 7.63914 17.8427 8.87131 16.6115C9.93642 15.5461 11.0019 14.4804 12.067 13.4157L15.2625 16.6115C16.4948 17.8435 18.4056 15.9324 17.1737 14.7003C16.1083 13.6348 15.0432 12.5697 13.9774 11.5044C15.043 10.439 16.1081 9.37352 17.1737 8.30824C18.4057 7.07658 16.495 5.16568 15.2625 6.39871" fill="#E8643B"/>
</svg>

