<svg width="32" height="32" viewBox="0 0 32 32" fill="none" xmlns="http://www.w3.org/2000/svg">
<path d="M31.5 16C31.5 24.5604 24.5604 31.5 16 31.5C7.43959 31.5 0.5 24.5604 0.5 16C0.5 7.43959 7.43959 0.5 16 0.5C24.5604 0.5 31.5 7.43959 31.5 16Z" fill="white" stroke="#0B9099"/>
<path fill-rule="evenodd" clip-rule="evenodd" d="M13 8H19C21.761 8 24 10.239 24 13V19C24 21.761 21.761 24 19 24H13C10.239 24 7.99997 21.761 7.99997 19V13C7.99997 10.239 10.239 8 13 8ZM18.9999 22.5C20.9299 22.5 22.4999 20.93 22.4999 19V13C22.4999 11.07 20.9299 9.5 18.9999 9.5H12.9999C11.0699 9.5 9.49994 11.07 9.49994 13V19C9.49994 20.93 11.0699 22.5 12.9999 22.5H18.9999Z" fill="#0B9099"/>
<path fill-rule="evenodd" clip-rule="evenodd" d="M11.9999 16C11.9999 13.791 13.7909 12 15.9999 12C18.2089 12 19.9999 13.791 19.9999 16C19.9999 18.209 18.2089 20 15.9999 20C13.7909 20 11.9999 18.209 11.9999 16ZM13.4999 16C13.4999 17.378 14.6219 18.5 15.9999 18.5C17.3779 18.5 18.4999 17.378 18.4999 16C18.4999 14.621 17.3779 13.5 15.9999 13.5C14.6219 13.5 13.4999 14.621 13.4999 16Z" fill="#0B9099"/>
<path d="M20.3333 12.6666C20.8856 12.6666 21.3333 12.2189 21.3333 11.6666C21.3333 11.1143 20.8856 10.6666 20.3333 10.6666C19.781 10.6666 19.3333 11.1143 19.3333 11.6666C19.3333 12.2189 19.781 12.6666 20.3333 12.6666Z" fill="#0B9099"/>
</svg>

