<svg width="32" height="32" viewBox="0 0 32 32" fill="none" xmlns="http://www.w3.org/2000/svg">
<path d="M31.5 16C31.5 24.5604 24.5604 31.5 16 31.5C7.43959 31.5 0.5 24.5604 0.5 16C0.5 7.43959 7.43959 0.5 16 0.5C24.5604 0.5 31.5 7.43959 31.5 16Z" fill="white" stroke="#0B9099"/>
<path d="M19.5606 8.66965L17.6791 8.66663C15.5653 8.66663 14.1992 10.0705 14.1992 12.2435V13.8926H12.3074C12.144 13.8926 12.0116 14.0254 12.0116 14.1892V16.5786C12.0116 16.7424 12.1441 16.875 12.3074 16.875H14.1992V22.9043C14.1992 23.0681 14.3316 23.2007 14.4951 23.2007H16.9633C17.1268 23.2007 17.2591 23.0679 17.2591 22.9043V16.875H19.4711C19.6345 16.875 19.7669 16.7424 19.7669 16.5786L19.7678 14.1892C19.7678 14.1105 19.7366 14.0352 19.6812 13.9796C19.6258 13.9239 19.5503 13.8926 19.4718 13.8926H17.2591V12.4946C17.2591 11.8227 17.419 11.4816 18.2928 11.4816L19.5603 11.4811C19.7236 11.4811 19.856 11.3484 19.856 11.1848V8.96601C19.856 8.80256 19.7237 8.66995 19.5606 8.66965Z" fill="#0B9099"/>
</svg>

