<svg width="21" height="21" viewBox="0 0 21 21" fill="none" xmlns="http://www.w3.org/2000/svg">
<path d="M10.9219 0.600098C8.26971 0.600098 5.72617 1.65367 3.85081 3.52903C1.97544 5.40439 0.921875 7.94793 0.921875 10.6001C0.921875 13.2523 1.97544 15.7958 3.85081 17.6712C5.72617 19.5465 8.26971 20.6001 10.9219 20.6001C13.574 20.6001 16.1176 19.5465 17.9929 17.6712C19.8683 15.7958 20.9219 13.2523 20.9219 10.6001C20.9219 7.94793 19.8683 5.40439 17.9929 3.52903C16.1176 1.65367 13.574 0.600098 10.9219 0.600098ZM16.6231 14.2441L14.5647 16.3025L10.9219 12.6584L7.27783 16.3013L5.21949 14.243L8.86473 10.6001L5.22069 6.95605L7.27902 4.89891L10.9219 8.54177L14.5659 4.89772L16.6243 6.95605L12.979 10.6001L16.6231 14.2441Z" fill="#C85146"/>
</svg>

