<svg width="85" height="18" viewBox="0 0 85 18" fill="none" xmlns="http://www.w3.org/2000/svg">
<rect width="18" height="18" rx="9" fill="#059c6d"/>
<rect x="2" y="2" width="14" height="14" rx="7" fill="#ffffff"/>
<path d="M26.532 7.32C26.884 6.48 27.412 6.06 28.116 6.06C28.252 6.06 28.424 6.088 28.632 6.144L28.608 7.56C28.384 7.512 28.164 7.488 27.948 7.488C27.004 7.488 26.532 8.14 26.532 9.444V12H25.116V6.156H26.532V7.32ZM34.4842 10.944C34.1162 11.72 33.5242 12.108 32.7082 12.108C31.6762 12.108 30.9962 11.704 30.6682 10.896C30.5482 10.616 30.4882 10.276 30.4882 9.876V6.156H31.9042V9.732C31.9042 10.116 31.9962 10.404 32.1802 10.596C32.3642 10.78 32.5882 10.872 32.8522 10.872C33.1242 10.872 33.3522 10.836 33.5362 10.764C33.7202 10.684 33.8802 10.568 34.0162 10.416C34.3122 10.072 34.4682 9.612 34.4842 9.036V6.156H35.9002V12H34.4842V10.944ZM40.0236 7.176C40.4076 6.4 41.0236 6.012 41.8716 6.012C42.5916 6.012 43.1316 6.248 43.4916 6.72C43.8596 7.192 44.0436 7.816 44.0436 8.592V12H42.6276V8.592C42.6276 8.16 42.5236 7.836 42.3156 7.62C42.1076 7.396 41.8156 7.284 41.4396 7.284C41.0636 7.284 40.7396 7.452 40.4676 7.788C40.2036 8.124 40.0636 8.628 40.0476 9.3V12H38.6316V6.168H39.8676L40.0236 7.176ZM48.0002 7.176C48.3842 6.4 49.0002 6.012 49.8482 6.012C50.5682 6.012 51.1082 6.248 51.4682 6.72C51.8362 7.192 52.0202 7.816 52.0202 8.592V12H50.6042V8.592C50.6042 8.16 50.5002 7.836 50.2922 7.62C50.0842 7.396 49.7922 7.284 49.4162 7.284C49.0402 7.284 48.7162 7.452 48.4442 7.788C48.1802 8.124 48.0402 8.628 48.0242 9.3V12H46.6082V6.168H47.8442L48.0002 7.176ZM58.6528 6.864C58.8528 7.12 59.0008 7.416 59.0968 7.752C59.2008 8.088 59.2528 8.396 59.2528 8.676C59.2528 8.956 59.2368 9.208 59.2048 9.432H55.4368C55.4528 9.904 55.5688 10.288 55.7848 10.584C56.0008 10.88 56.3288 11.028 56.7688 11.028C57.3528 11.028 57.7008 10.772 57.8128 10.26H59.2408C59.1448 10.844 58.8768 11.304 58.4368 11.64C57.9808 11.992 57.4248 12.168 56.7688 12.168C56.0008 12.168 55.3568 11.888 54.8368 11.328C54.3008 10.744 54.0328 9.996 54.0328 9.084C54.0328 8.148 54.3008 7.396 54.8368 6.828C55.3488 6.284 55.9928 6.012 56.7688 6.012C57.5768 6.012 58.2048 6.296 58.6528 6.864ZM56.7808 7.14C56.3808 7.14 56.0688 7.272 55.8448 7.536C55.6208 7.792 55.4888 8.124 55.4488 8.532H57.9328C57.9328 7.9 57.7328 7.476 57.3328 7.26C57.1808 7.18 56.9968 7.14 56.7808 7.14ZM62.864 7.32C63.216 6.48 63.744 6.06 64.448 6.06C64.584 6.06 64.756 6.088 64.964 6.144L64.94 7.56C64.716 7.512 64.496 7.488 64.28 7.488C63.336 7.488 62.864 8.14 62.864 9.444V12H61.448V6.156H62.864V7.32ZM74.3514 10.944C73.9834 11.72 73.3914 12.108 72.5754 12.108C71.5434 12.108 70.8634 11.704 70.5354 10.896C70.4154 10.616 70.3554 10.276 70.3554 9.876V6.156H71.7714V9.732C71.7714 10.116 71.8634 10.404 72.0474 10.596C72.2314 10.78 72.4554 10.872 72.7194 10.872C72.9914 10.872 73.2194 10.836 73.4034 10.764C73.5874 10.684 73.7474 10.568 73.8834 10.416C74.1794 10.072 74.3354 9.612 74.3514 9.036V6.156H75.7674V12H74.3514V10.944ZM79.7948 6.96C80.1628 6.328 80.7228 6.012 81.4748 6.012C82.1948 6.012 82.8108 6.284 83.3228 6.828C83.8668 7.404 84.1388 8.156 84.1388 9.084C84.1388 10.02 83.8628 10.776 83.3108 11.352C82.7988 11.896 82.1868 12.168 81.4748 12.168C80.7628 12.168 80.2428 11.956 79.9148 11.532V14.844H78.4988V6.168H79.6628L79.7948 6.96ZM81.2228 10.884C81.3908 10.884 81.5628 10.848 81.7388 10.776C81.9228 10.704 82.0868 10.592 82.2308 10.44C82.5508 10.104 82.7108 9.656 82.7108 9.096C82.7108 8.528 82.5708 8.084 82.2908 7.764C82.0188 7.444 81.6828 7.284 81.2828 7.284C80.8908 7.284 80.5668 7.4 80.3108 7.632C80.0628 7.856 79.9308 8.18 79.9148 8.604V9.648C79.9148 10.024 80.0468 10.328 80.3108 10.56C80.5588 10.776 80.8628 10.884 81.2228 10.884Z" fill="#333222"/>
<path d="M9.06 11.2232L10.908 9.09922C11.412 8.53522 11.772 7.86322 11.772 7.10722C11.772 5.67922 10.752 4.73122 9.18 4.73122C7.608 4.73122 6.696 5.69122 6.504 7.09522L7.932 7.33522C8.028 6.65122 8.424 6.19522 9.12 6.19522C9.732 6.19522 10.164 6.56722 10.164 7.09522C10.164 7.35922 9.948 7.76722 9.624 8.16322L6.552 11.8472V12.6992H11.844V11.2232H9.06Z" fill="#059c6d"/>
</svg>

