<svg width="66" height="18" viewBox="0 0 66 18" fill="none" xmlns="http://www.w3.org/2000/svg">
<rect width="18" height="18" rx="9" fill="#059c6d"/>
<rect x="2" y="2" width="14" height="14" rx="7" fill="#ffffff"/>
<path d="M25.632 6.168L26.808 10.332L27.924 6.492H29.208L30.324 10.344L31.512 6.168H32.928L31.008 12H29.616L28.536 8.508L27.48 12H26.076L24.144 6.168H25.632ZM34.8298 6.156H36.2458V12H34.8298V6.156ZM34.6618 4.284C34.6618 4.028 34.7378 3.828 34.8898 3.684C35.0418 3.532 35.2578 3.456 35.5378 3.456C35.8098 3.456 36.0218 3.532 36.1738 3.684C36.3338 3.828 36.4138 4.028 36.4138 4.284C36.4138 4.54 36.3338 4.744 36.1738 4.896C36.0218 5.04 35.8098 5.112 35.5378 5.112C35.2578 5.112 35.0418 5.04 34.8898 4.896C34.7378 4.744 34.6618 4.54 34.6618 4.284ZM40.5393 7.176C40.9233 6.4 41.5393 6.012 42.3873 6.012C43.1073 6.012 43.6473 6.248 44.0073 6.72C44.3753 7.192 44.5593 7.816 44.5593 8.592V12H43.1433V8.592C43.1433 8.16 43.0393 7.836 42.8313 7.62C42.6233 7.396 42.3313 7.284 41.9553 7.284C41.5793 7.284 41.2553 7.452 40.9833 7.788C40.7193 8.124 40.5793 8.628 40.5633 9.3V12H39.1473V6.168H40.3833L40.5393 7.176ZM48.5158 7.176C48.8998 6.4 49.5158 6.012 50.3638 6.012C51.0838 6.012 51.6238 6.248 51.9838 6.72C52.3518 7.192 52.5358 7.816 52.5358 8.592V12H51.1198V8.592C51.1198 8.16 51.0158 7.836 50.8078 7.62C50.5998 7.396 50.3078 7.284 49.9318 7.284C49.5558 7.284 49.2318 7.452 48.9598 7.788C48.6958 8.124 48.5558 8.628 48.5398 9.3V12H47.1238V6.168H48.3598L48.5158 7.176ZM59.1684 6.864C59.3684 7.12 59.5164 7.416 59.6124 7.752C59.7164 8.088 59.7684 8.396 59.7684 8.676C59.7684 8.956 59.7524 9.208 59.7204 9.432H55.9524C55.9684 9.904 56.0844 10.288 56.3004 10.584C56.5164 10.88 56.8444 11.028 57.2844 11.028C57.8684 11.028 58.2164 10.772 58.3284 10.26H59.7564C59.6604 10.844 59.3924 11.304 58.9524 11.64C58.4964 11.992 57.9404 12.168 57.2844 12.168C56.5164 12.168 55.8724 11.888 55.3524 11.328C54.8164 10.744 54.5484 9.996 54.5484 9.084C54.5484 8.148 54.8164 7.396 55.3524 6.828C55.8644 6.284 56.5084 6.012 57.2844 6.012C58.0924 6.012 58.7204 6.296 59.1684 6.864ZM57.2964 7.14C56.8964 7.14 56.5844 7.272 56.3604 7.536C56.1364 7.792 56.0044 8.124 55.9644 8.532H58.4484C58.4484 7.9 58.2484 7.476 57.8484 7.26C57.6964 7.18 57.5124 7.14 57.2964 7.14ZM63.3797 7.32C63.7317 6.48 64.2597 6.06 64.9637 6.06C65.0997 6.06 65.2717 6.088 65.4797 6.144L65.4557 7.56C65.2317 7.512 65.0117 7.488 64.7957 7.488C63.8517 7.488 63.3797 8.14 63.3797 9.444V12H61.9637V6.156H63.3797V7.32Z" fill="#333222"/>
<path d="M9.8758 4.33278L6.6118 5.68878V7.16478L8.4238 6.46878V12.3008H10.0078V4.33278H9.8758Z" fill="#059c6d"/>
</svg>

